<?xml version="1.0" standalone="no"?>
<!DOCTYPE svg PUBLIC "-//W3C//DTD SVG 20010904//EN"
 "http://www.w3.org/TR/2001/REC-SVG-20010904/DTD/svg10.dtd">
<svg version="1.0" xmlns="http://www.w3.org/2000/svg"
 width="16.000000pt" height="16.000000pt" viewBox="0 0 16.000000 16.000000"
 preserveAspectRatio="xMidYMid meet">

<g transform="translate(0.000000,16.000000) scale(0.100000,-0.100000)"
fill="#000000" stroke="none">
<path d="M10 131 c-5 -11 -10 -42 -10 -70 0 -44 3 -51 20 -51 18 0 20 7 20 55
0 54 0 55 30 55 20 0 30 5 30 15 0 24 -76 20 -90 -4z"/>
<path d="M120 95 c0 -54 0 -55 -30 -55 -20 0 -30 -5 -30 -15 0 -11 12 -15 44
-15 51 0 56 7 56 86 0 47 -2 54 -20 54 -18 0 -20 -7 -20 -55z"/>
</g>
</svg>
